<svg width="253" height="69" viewBox="0 0 253 69" fill="none" xmlns="http://www.w3.org/2000/svg">
<path d="M101.513 27.565V20.3783H93.7166V56.446H101.513V37.5986C101.728 35.5194 102.36 33.7115 103.412 32.1633C104.451 30.6152 105.875 29.4287 107.66 28.6155C109.457 27.7907 111.558 27.4406 113.988 27.565V20.1064C111.129 20.1064 108.644 20.74 106.53 22.0047C104.417 23.2603 102.745 25.1126 101.513 27.565ZM79.2546 11.8358H71.5259V21.734H66.4414V27.565H71.5259V43.4708C71.5259 50.6078 77.3647 56.446 84.5011 56.446H86.5281V48.7173H84.7651C81.7343 48.7173 79.2546 46.237 79.2546 43.2068V27.5656H87.9087V21.7346H79.2546V11.8358V11.8358ZM146.749 25.8693C145.382 24.0165 143.575 22.5928 141.325 21.5981C139.077 20.6149 136.365 20.1185 133.201 20.1064C130.511 20.13 128.06 20.5925 125.834 21.4743C123.607 22.3561 121.687 23.6099 120.071 25.2254C118.444 26.8416 117.189 28.7739 116.308 31.0109C115.427 33.2485 114.975 35.7452 114.964 38.4798C114.975 41.2029 115.416 43.6772 116.285 45.9032C117.156 48.1293 118.399 50.0501 120.015 51.6656C121.631 53.2817 123.574 54.5246 125.834 55.3955C128.095 56.2652 130.613 56.7057 133.405 56.7173C136.535 56.7057 139.36 56.1741 141.88 55.1121C144.399 54.0622 146.546 52.5589 148.32 50.6157L144.185 46.2085C142.852 47.5758 141.315 48.6154 139.586 49.3272C137.857 50.05 135.992 50.4124 134.015 50.4124C132.106 50.4008 130.388 50.0391 128.851 49.3048C127.326 48.582 126.037 47.5533 125.009 46.2085C123.97 44.8636 123.246 43.259 122.828 41.3947H150.083C150.32 38.129 150.173 35.1911 149.63 32.5809C149.088 29.9597 148.127 27.7228 146.749 25.8693ZM122.692 35.7003C122.997 33.7679 123.618 32.1075 124.557 30.7171C125.505 29.3158 126.715 28.2429 128.196 27.4855C129.675 26.7287 131.359 26.3555 133.268 26.3445C135.246 26.3555 136.963 26.7287 138.432 27.4739C139.901 28.2198 141.054 29.2934 141.889 30.6832C142.737 32.0729 143.2 33.7455 143.302 35.7003H122.692ZM212.221 38.1412C212.221 39.7227 211.995 41.192 211.554 42.5362C211.112 43.892 210.458 45.0675 209.61 46.0847C208.762 47.0903 207.723 47.8926 206.503 48.4697C205.283 49.045 203.882 49.3503 202.322 49.3958C200.571 49.3843 199.079 49.0335 197.825 48.3332C196.571 47.6328 195.611 46.6266 194.932 45.3279C194.266 44.0279 193.927 42.4682 193.915 40.65V20.3783H186.118V42.819C186.129 45.7005 186.661 48.1754 187.711 50.254C188.762 52.3216 190.265 53.9147 192.231 55.0223C194.209 56.1407 196.57 56.7057 199.338 56.7173C202.299 56.6942 204.886 56.0964 207.079 54.9094C209.27 53.7338 210.988 51.8926 212.22 49.3958V56.446H220.017V20.3783H212.22V38.1412H212.221ZM251.96 41.3382C251.282 40.085 250.366 39.0563 249.237 38.2425C248.107 37.4402 246.863 36.7726 245.507 36.2537C244.141 35.7343 242.784 35.2821 241.428 34.8864C240.073 34.5023 238.818 34.0951 237.677 33.6884C236.547 33.2709 235.632 32.7623 234.942 32.1627C234.252 31.5747 233.903 30.8076 233.88 29.8699C233.892 29.01 234.118 28.3212 234.57 27.7901C235.021 27.2591 235.654 26.875 236.445 26.6377C237.237 26.3888 238.141 26.276 239.169 26.276C240.242 26.276 241.372 26.4125 242.57 26.6601C243.756 26.9205 244.954 27.281 246.14 27.7562C247.338 28.2301 248.468 28.8067 249.541 29.4627L252.388 23.6997C251.292 22.9308 250.061 22.2645 248.682 21.7219C247.304 21.18 245.858 20.7618 244.344 20.4796C242.83 20.1859 241.304 20.039 239.779 20.039C238.039 20.039 236.367 20.2308 234.785 20.638C233.204 21.0452 231.791 21.6661 230.548 22.5133C229.295 23.3611 228.322 24.4341 227.599 25.7565C226.876 27.0783 226.503 28.6495 226.492 30.4798C226.504 32.3211 226.842 33.8584 227.52 35.0897C228.198 36.3217 229.091 37.3273 230.21 38.1072C231.329 38.8864 232.571 39.5188 233.905 40.0164C235.249 40.5129 236.594 40.9547 237.938 41.3382C239.283 41.7224 240.526 42.1296 241.644 42.5696C242.774 43.0108 243.678 43.5527 244.356 44.2088C245.034 44.8636 245.384 45.7108 245.406 46.7504C245.395 47.6547 245.135 48.389 244.615 48.9534C244.096 49.5299 243.395 49.9481 242.514 50.2194C241.633 50.4791 240.627 50.6151 239.508 50.6151C238.175 50.6151 236.785 50.4336 235.327 50.0719C233.869 49.7102 232.446 49.2022 231.078 48.5353C229.712 47.8689 228.503 47.0666 227.44 46.1405L224.66 51.699C225.87 52.7841 227.271 53.6992 228.841 54.4445C230.423 55.1904 232.095 55.7554 233.858 56.1395C235.621 56.5243 237.395 56.7161 239.17 56.7161C241.001 56.7161 242.741 56.5012 244.39 56.0831C246.04 55.6534 247.52 55.0095 248.808 54.1277C250.096 53.258 251.113 52.1402 251.859 50.7947C252.605 49.4498 252.989 47.8458 253 46.0033C252.988 44.1523 252.649 42.5933 251.96 41.3382ZM155.602 56.446H163.4V6.14075H155.602V56.446ZM171.432 56.446H179.229V6.14075H171.432V56.446Z" fill="#A1CA43"/>
<path fill-rule="evenodd" clip-rule="evenodd" d="M37.4221 22.5163C37.424 24.1804 37.4221 25.8093 37.4221 27.4733C40.9809 27.863 44.5397 28.2671 48.0984 28.6562C48.1015 31.8909 48.0984 29.7935 48.1045 33.4609C48.1051 34.5241 47.3156 35.5783 46.1073 35.5504C42.5109 35.4569 38.912 35.3792 35.3144 35.2955C35.298 29.5507 35.3035 23.8047 35.2968 18.0606C35.295 13.3129 30.71 9.11145 26.1432 7.76841C17.6098 5.25773 9.14254 2.54435 0.610352 0.0300293C0.610352 4.14592 0.610352 8.26242 0.610352 12.3783C0.610352 19.8976 8.56843 24.4941 15.7054 25.2867C20.3013 25.7965 24.9064 26.0975 29.5017 26.5952C29.5035 29.4512 29.5065 32.306 29.5078 35.1614C27.7059 35.1201 25.9047 35.0788 24.1041 35.0369C18.5304 34.9028 12.3511 38.6679 12.3523 44.3253C12.3566 52.5371 12.3645 60.7494 12.3645 68.9618C16.9701 67.6115 21.5776 66.2575 26.1826 64.9042C30.7355 63.569 35.3345 59.3536 35.329 54.6199C35.3284 52.2081 35.3241 49.3357 35.3223 46.9246C35.3217 45.4772 35.3205 44.0298 35.3205 42.5835C33.3845 42.6794 31.4474 42.6272 29.5114 42.7225C29.5114 46.6102 29.5193 50.9616 29.5193 54.8499C29.5193 56.8544 28.0336 58.9251 25.9065 59.4483C23.962 59.9277 22.0182 60.4059 20.075 60.8848C20.0743 55.2316 20.0665 49.5773 20.064 43.9248C20.0628 41.9918 22.2112 40.6622 24.1053 40.6203C31.4395 40.4406 38.7761 40.2634 46.1103 40.0862C49.7273 40.0019 52.187 36.9068 52.1822 33.6411C52.1779 30.7141 52.1773 27.7841 52.17 24.8571C47.2543 24.0803 42.3391 23.2913 37.4221 22.5163ZM15.8444 19.0929C12.6333 18.5843 10.417 16.9767 10.417 13.7359C10.417 12.2964 10.4164 10.8575 10.4164 9.41914C15.5688 10.6881 20.7189 11.9608 25.8701 13.2304C27.61 13.6594 29.492 15.4728 29.4926 17.274C29.4974 18.6796 29.4974 19.8545 29.4987 21.2588C24.9476 20.5367 20.3954 19.8145 15.8444 19.0929Z" fill="#A1CA43"/>
</svg>
